<mxfile host="Electron" modified="2024-08-20T06:41:36.805Z" agent="Mozilla/5.0 (X11; Linux x86_64) AppleWebKit/537.36 (KHTML, like Gecko) draw.io/23.1.5 Chrome/120.0.6099.109 Electron/28.1.0 Safari/537.36" etag="V0GVy4XjBJvwHM9vPvuy" version="23.1.5" type="device">
  <diagram name="Seite-1" id="7cCmvS94iHAtN8SQyxn8">
    <mxGraphModel dx="2261" dy="841" grid="1" gridSize="10" guides="1" tooltips="1" connect="1" arrows="1" fold="1" page="1" pageScale="1" pageWidth="827" pageHeight="1169" math="0" shadow="0">
      <root>
        <mxCell id="0" />
        <mxCell id="1" parent="0" />
        <mxCell id="eVsBYy2i_nbogRP2qlKe-1" value="Systemanforderungen" style="rounded=1;whiteSpace=wrap;html=1;" vertex="1" parent="1">
          <mxGeometry x="20" y="80" width="160" height="40" as="geometry" />
        </mxCell>
        <mxCell id="eVsBYy2i_nbogRP2qlKe-2" value="Systementwurf" style="rounded=1;whiteSpace=wrap;html=1;" vertex="1" parent="1">
          <mxGeometry x="80" y="160" width="160" height="40" as="geometry" />
        </mxCell>
        <mxCell id="eVsBYy2i_nbogRP2qlKe-3" value="Architektur" style="rounded=1;whiteSpace=wrap;html=1;" vertex="1" parent="1">
          <mxGeometry x="130" y="240" width="160" height="40" as="geometry" />
        </mxCell>
        <mxCell id="eVsBYy2i_nbogRP2qlKe-4" value="Komponentenspezifikation" style="rounded=1;whiteSpace=wrap;html=1;" vertex="1" parent="1">
          <mxGeometry x="190" y="320" width="160" height="40" as="geometry" />
        </mxCell>
        <mxCell id="eVsBYy2i_nbogRP2qlKe-5" value="Implementierung" style="rounded=1;whiteSpace=wrap;html=1;" vertex="1" parent="1">
          <mxGeometry x="280" y="400" width="160" height="40" as="geometry" />
        </mxCell>
        <mxCell id="eVsBYy2i_nbogRP2qlKe-13" style="edgeStyle=orthogonalEdgeStyle;rounded=0;orthogonalLoop=1;jettySize=auto;html=1;exitX=0;exitY=0.5;exitDx=0;exitDy=0;entryX=1;entryY=0.5;entryDx=0;entryDy=0;" edge="1" parent="1" source="eVsBYy2i_nbogRP2qlKe-6" target="eVsBYy2i_nbogRP2qlKe-4">
          <mxGeometry relative="1" as="geometry" />
        </mxCell>
        <mxCell id="eVsBYy2i_nbogRP2qlKe-6" value="Komponententest" style="rounded=1;whiteSpace=wrap;html=1;" vertex="1" parent="1">
          <mxGeometry x="370" y="320" width="160" height="40" as="geometry" />
        </mxCell>
        <mxCell id="eVsBYy2i_nbogRP2qlKe-12" value="Validierung" style="edgeStyle=orthogonalEdgeStyle;rounded=0;orthogonalLoop=1;jettySize=auto;html=1;exitX=0;exitY=0.5;exitDx=0;exitDy=0;entryX=1;entryY=0.5;entryDx=0;entryDy=0;" edge="1" parent="1" source="eVsBYy2i_nbogRP2qlKe-7" target="eVsBYy2i_nbogRP2qlKe-3">
          <mxGeometry relative="1" as="geometry" />
        </mxCell>
        <mxCell id="eVsBYy2i_nbogRP2qlKe-7" value="Integrationstest" style="rounded=1;whiteSpace=wrap;html=1;" vertex="1" parent="1">
          <mxGeometry x="430" y="240" width="160" height="40" as="geometry" />
        </mxCell>
        <mxCell id="eVsBYy2i_nbogRP2qlKe-11" value="Validierung" style="edgeStyle=orthogonalEdgeStyle;rounded=0;orthogonalLoop=1;jettySize=auto;html=1;exitX=0;exitY=0.5;exitDx=0;exitDy=0;entryX=1;entryY=0.5;entryDx=0;entryDy=0;" edge="1" parent="1" source="eVsBYy2i_nbogRP2qlKe-8" target="eVsBYy2i_nbogRP2qlKe-2">
          <mxGeometry relative="1" as="geometry" />
        </mxCell>
        <mxCell id="eVsBYy2i_nbogRP2qlKe-8" value="Systemtest" style="rounded=1;whiteSpace=wrap;html=1;" vertex="1" parent="1">
          <mxGeometry x="480" y="160" width="160" height="40" as="geometry" />
        </mxCell>
        <mxCell id="eVsBYy2i_nbogRP2qlKe-10" value="Validierung" style="edgeStyle=orthogonalEdgeStyle;rounded=0;orthogonalLoop=1;jettySize=auto;html=1;exitX=0;exitY=0.5;exitDx=0;exitDy=0;" edge="1" parent="1" source="eVsBYy2i_nbogRP2qlKe-9" target="eVsBYy2i_nbogRP2qlKe-1">
          <mxGeometry relative="1" as="geometry" />
        </mxCell>
        <mxCell id="eVsBYy2i_nbogRP2qlKe-9" value="Abnahmetest" style="rounded=1;whiteSpace=wrap;html=1;" vertex="1" parent="1">
          <mxGeometry x="520" y="80" width="160" height="40" as="geometry" />
        </mxCell>
        <mxCell id="eVsBYy2i_nbogRP2qlKe-14" value="" style="shape=flexArrow;endArrow=classic;html=1;rounded=0;" edge="1" parent="1">
          <mxGeometry width="50" height="50" relative="1" as="geometry">
            <mxPoint x="520" y="440" as="sourcePoint" />
            <mxPoint x="720" y="90" as="targetPoint" />
          </mxGeometry>
        </mxCell>
        <mxCell id="eVsBYy2i_nbogRP2qlKe-15" value="&lt;b&gt;Validierungsphase&lt;/b&gt;" style="text;html=1;align=center;verticalAlign=middle;whiteSpace=wrap;rounded=0;rotation=-59;" vertex="1" parent="1">
          <mxGeometry x="620" y="270" width="60" height="30" as="geometry" />
        </mxCell>
        <mxCell id="eVsBYy2i_nbogRP2qlKe-16" value="" style="shape=flexArrow;endArrow=classic;html=1;rounded=0;" edge="1" parent="1">
          <mxGeometry width="50" height="50" relative="1" as="geometry">
            <mxPoint x="-20" y="100" as="sourcePoint" />
            <mxPoint x="180" y="450" as="targetPoint" />
          </mxGeometry>
        </mxCell>
        <mxCell id="eVsBYy2i_nbogRP2qlKe-17" value="&lt;b&gt;Planungsphase&lt;br&gt;&lt;/b&gt;" style="text;html=1;align=center;verticalAlign=middle;whiteSpace=wrap;rounded=0;rotation=60;flipV=1;flipH=0;" vertex="1" parent="1">
          <mxGeometry x="30" y="270" width="60" height="30" as="geometry" />
        </mxCell>
        <mxCell id="eVsBYy2i_nbogRP2qlKe-19" value="" style="shape=flexArrow;endArrow=classic;html=1;rounded=0;" edge="1" parent="1">
          <mxGeometry width="50" height="50" relative="1" as="geometry">
            <mxPoint x="270" y="470" as="sourcePoint" />
            <mxPoint x="480" y="470" as="targetPoint" />
          </mxGeometry>
        </mxCell>
        <mxCell id="eVsBYy2i_nbogRP2qlKe-20" value="&lt;b&gt;Implementierungsphase&lt;/b&gt;" style="text;html=1;align=center;verticalAlign=middle;whiteSpace=wrap;rounded=0;" vertex="1" parent="1">
          <mxGeometry x="270" y="480" width="200" height="30" as="geometry" />
        </mxCell>
      </root>
    </mxGraphModel>
  </diagram>
</mxfile>
